# xmcd
#
# Track frame offsets: 
#        150
#        26550
#        41052
#        53318
#        66997
#        90921
#        104028
#        117848
#        129884
#        157928
#        172300
#        199464
#        208608
#        222269
#        247915
#        261251
#
# Disc length: 3641 seconds
#
# Revision: 5
# Processed by: cddbd v1.5.2PL0 Copyright (c) Steve Scherf et al.
# Submitted via: ExactAudioCopy v1.0b3
#
DISCID=e20e3710
DTITLE=王人美 - 上海老歌 (1931-1949) [Disc 1]
DYEAR=2009
DGENRE=Pop
TTITLE0=渔光曲
TTITLE1=关不住的春光
TTITLE2=铁蹄下的歌女
TTITLE3=梅娘曲
TTITLE4=恭贺新禧
TTITLE5=春回来了
TTITLE6=小天使
TTITLE7=卖饼儿
TTITLE8=芭蕉叶上诗
TTITLE9=玫瑰花开
TTITLE10=新毛毛雨
TTITLE11=雷峰塔影
TTITLE12=盼郎归
TTITLE13=春花秋月
TTITLE14=洞庭月
TTITLE15=青春的梦
EXTD=YEAR: 2009
EXTT0=
EXTT1=
EXTT2=
EXTT3=
EXTT4=
EXTT5=
EXTT6=
EXTT7=
EXTT8=
EXTT9=
EXTT10=
EXTT11=
EXTT12=
EXTT13=
EXTT14=
EXTT15=
PLAYORDER=
